<svg viewBox="0 0 1200 1200" height="1200px" width="1200px" xmlns:xlink="http://www.w3.org/1999/xlink" xmlns="http://www.w3.org/2000/svg">
    <g id="e759d73f-e60f-4a30-b237-f83602ffef0f">
<g style="">
		<g id="7ded1d49-35d1-4c5a-a044-22160ede892e">
<path stroke-linecap="round" d="M796.2739,942.46595c0.55376,0.08143 1.09122,0.16287 1.64498,0.2443c0.22802,0.03257 0.43975,0.06515 0.66776,0.11401c0.17916,0.03257 0.35831,0.06515 0.53747,0.09772c0.01629,0 0.03257,0 0.04886,0.01629c-0.01629,0.08143 -0.04886,0.16287 -0.06515,0.2443c-0.01629,0.04886 -0.03257,0.11401 -0.04886,0.16287c-0.09772,0.17916 -0.17916,0.35831 -0.27688,0.53747c-0.04886,0.09772 -0.09772,0.19544 -0.14658,0.29317c-0.14658,0.27688 -0.30945,0.53747 -0.45603,0.81435c-0.08143,0.14658 -0.16287,0.29317 -0.2443,0.43975c-0.21173,0.34203 -0.42346,0.70034 -0.63519,1.05865c-0.09772,0.17916 -0.21173,0.3746 -0.32574,0.55376c-0.40717,0.66777 -0.81435,1.33553 -1.22152,1.98701c-0.47232,0.78177 -0.96093,1.54726 -1.44954,2.32904c-0.55376,0.8795 -1.10751,1.75899 -1.66127,2.63849c-0.83063,1.30296 -1.67755,2.60591 -2.50819,3.92516c-1.48211,2.26389 -2.96422,4.54406 -4.44633,6.80795c-1.69384,2.55705 -3.38768,5.13039 -5.08152,7.68745c-1.22152,1.85671 -2.45933,3.69714 -3.69713,5.55385c-2.6222,3.90887 -5.26068,7.81774 -7.88287,11.71032c-1.93814,2.88279 -3.86,5.76558 -5.79815,8.63209c-1.77528,2.68735 -3.56684,5.3747 -5.34211,8.07833c-1.59612,2.42676 -3.19224,4.8698 -4.78836,7.31285c-1.15637,1.77528 -2.29646,3.55056 -3.43654,5.34212c-0.6189,0.94464 -1.22152,1.90557 -1.84042,2.8665c-0.53747,0.84692 -1.07494,1.71013 -1.61241,2.57334c-0.47232,0.7492 -0.92836,1.4984 -1.40068,2.2476c-0.3746,0.63519 -0.76549,1.27038 -1.15637,1.90557c-0.19544,0.34203 -0.40717,0.70034 -0.60262,1.04237c-0.09772,0.16287 -0.19544,0.32574 -0.29316,0.48861c-0.14658,0.27688 -0.29316,0.53747 -0.42346,0.79806c-0.06515,0.11401 -0.1303,0.2443 -0.19544,0.35831c-0.08143,0.17916 -0.16287,0.34203 -0.26059,0.52118c-0.04886,0.14658 -0.09772,0.29317 -0.1303,0.43975c0,0.04886 0,0.09772 0,0.14658c0.08143,0.26059 0.16287,0.52118 0.2443,0.76549c0.06515,0.16287 0.11401,0.30945 0.16287,0.45603c0.19544,0.43975 0.3746,0.89578 0.55376,1.33553c0.11401,0.2443 0.21173,0.48861 0.30945,0.73291c0.27688,0.60262 0.55376,1.20524 0.81435,1.80785c0.14658,0.32574 0.29316,0.65148 0.43975,0.97722c0.53747,1.1238 1.07494,2.26389 1.59612,3.40397c0.63519,1.30296 1.27038,2.6222 1.88928,3.92516c0.47232,0.96093 0.94464,1.92186 1.41696,2.8665c1.56355,3.11081 3.12709,6.22162 4.69064,9.33243c3.01308,5.91217 5.99359,11.84062 8.94152,17.80165c0.43975,0.89578 0.87949,1.79157 1.31924,2.68735c0.21173,0.45603 0.42346,0.91207 0.63519,1.3681c0.09772,0.19544 0.19544,0.40717 0.29316,0.60262c0.11401,0.27688 0.2443,0.53747 0.35831,0.81435c0.06515,0.17916 0.1303,0.34203 0.17916,0.52118v0c-0.1303,0.08143 -0.27688,0.16287 -0.40717,0.2443c-15.30971,8.63209 -30.68458,17.13388 -46.02686,25.70082c-27.23175,15.19573 -54.46349,30.40775 -81.66267,45.66864c-2.57333,1.43325 -5.14667,2.85022 -7.72,4.28347c-2.41047,1.31924 -4.80464,2.63849 -7.21511,3.95773c-2.16616,1.18895 -4.34861,2.36161 -6.53106,3.53427c-1.88928,1.02608 -3.79485,2.03587 -5.68414,3.04566c-1.31924,0.68405 -2.6222,1.3681 -3.94144,2.05216c-0.66776,0.34203 -1.33553,0.68405 -2.00329,1.02608c-0.57004,0.29317 -1.14009,0.57004 -1.71013,0.86321c-0.30945,0.14658 -0.6189,0.29317 -0.92836,0.43975c-0.14658,0.08143 -0.29316,0.14658 -0.43975,0.21173c-0.2443,0.11401 -0.47232,0.21173 -0.70034,0.32574c-0.11401,0.04886 -0.22802,0.09772 -0.32574,0.14658c-0.16287,0.04886 -0.30945,0.11401 -0.45603,0.17916c-0.1303,0.03257 -0.26059,0.06515 -0.40717,0.09772c-0.03257,0 -0.08143,0 -0.1303,0c-0.19544,-0.08143 -0.39089,-0.14658 -0.60262,-0.21173c-0.11401,-0.04886 -0.22802,-0.09772 -0.34203,-0.14658c-0.34203,-0.14658 -0.68405,-0.30945 -1.00979,-0.45603c-0.17916,-0.08143 -0.3746,-0.16287 -0.55376,-0.26059c-0.45603,-0.21173 -0.89578,-0.43975 -1.35182,-0.66777c-0.2443,-0.11401 -0.48861,-0.2443 -0.71662,-0.35831c-0.55376,-0.27688 -1.10751,-0.57004 -1.66127,-0.86321c-0.29316,-0.14658 -0.57004,-0.29317 -0.86321,-0.43975c-0.96093,-0.52118 -1.92186,-1.04237 -2.88279,-1.54726c-1.41696,-0.78177 -2.83393,-1.56355 -4.2346,-2.34532c-1.54726,-0.8795 -3.09452,-1.75899 -4.65806,-2.63849c-10.8471,-6.25419 -21.79191,-12.34552 -32.72044,-18.46941c-23.29031,-13.06214 -46.61319,-26.02656 -69.88722,-39.0887c-6.84051,-3.82744 -13.66473,-7.67116 -20.48896,-11.51488c-5.14667,-2.91537 -10.29334,-5.81444 -15.40744,-8.77867c-0.29316,-0.17916 -0.58633,-0.34203 -0.89578,-0.52118c-0.29316,-0.19544 -0.60262,-0.3746 -0.91207,-0.55376c-1.97072,-1.23781 -3.95772,-2.47562 -5.94473,-3.71343c4.56034,-8.82753 9.10439,-17.67135 13.66473,-26.49888c1.00979,-2.0033 2.01958,-4.00659 3.01308,-6.00989c0.2443,-0.48861 0.48861,-0.96093 0.71662,-1.44954c0.66776,-1.33553 1.31924,-2.68735 1.97072,-4.02288c0.57004,-1.18895 1.1238,-2.36161 1.69384,-3.55056c0.30945,-0.68405 0.6189,-1.35182 0.92836,-2.01958c0.14658,-0.32574 0.29316,-0.63519 0.43975,-0.96093c0.22802,-0.52118 0.45603,-1.04237 0.68405,-1.56355c0.09772,-0.2443 0.19544,-0.48861 0.29316,-0.71663c0.14658,-0.35831 0.27688,-0.70034 0.40717,-1.05865c0.08143,-0.30945 0.16287,-0.60262 0.2443,-0.91207c0.01629,-0.03257 0.01629,-0.04886 0.01629,-0.08143c-0.04886,-0.11401 -0.09772,-0.22802 -0.14658,-0.35831c-0.03257,-0.06515 -0.06515,-0.14658 -0.09772,-0.21173c-0.11401,-0.21173 -0.22802,-0.42346 -0.34203,-0.63519c-0.04886,-0.1303 -0.11401,-0.2443 -0.17916,-0.35831c-0.17916,-0.29317 -0.34203,-0.60262 -0.52118,-0.89578c-0.08143,-0.16287 -0.17916,-0.32574 -0.27688,-0.48861c-0.21173,-0.3746 -0.43975,-0.7492 -0.66776,-1.14009c-0.1303,-0.19544 -0.2443,-0.39089 -0.35831,-0.58633c-0.43975,-0.70034 -0.86321,-1.40068 -1.28667,-2.08473c-0.50489,-0.79806 -0.9935,-1.61241 -1.4984,-2.41047c-0.57004,-0.89578 -1.14009,-1.79157 -1.71013,-2.68735c-0.84692,-1.31924 -1.69384,-2.65477 -2.55705,-3.97402c-1.48211,-2.26389 -2.94793,-4.54406 -4.44633,-6.80795c-1.66127,-2.54077 -3.33882,-5.08153 -5.01637,-7.60601c-1.20523,-1.82414 -2.42675,-3.63199 -3.63199,-5.45613c-7.73629,-11.49859 -15.50516,-22.99719 -23.14373,-34.56093c-2.2476,-3.43655 -4.49519,-6.85681 -6.71022,-10.30965c-0.45603,-0.71663 -0.91207,-1.43325 -1.35182,-2.13359c-0.3746,-0.60262 -0.76549,-1.20524 -1.14009,-1.80785c-0.19544,-0.32574 -0.39089,-0.65148 -0.58633,-0.97722c-0.09772,-0.16287 -0.19544,-0.30945 -0.29316,-0.45603c-0.1303,-0.2443 -0.27688,-0.48861 -0.42346,-0.73291c-0.06515,-0.11401 -0.1303,-0.22802 -0.17916,-0.34203c-0.08143,-0.14658 -0.16287,-0.30945 -0.2443,-0.45603c-0.04886,-0.1303 -0.09772,-0.2443 -0.16287,-0.3746c0,-0.08143 0,-0.16287 0,-0.22802c-0.01629,-0.1303 -0.04886,-0.2443 -0.06515,-0.3746c0,-0.03257 0,-0.04886 0,-0.08143c0.06515,-0.06515 0.11401,-0.11401 0.17916,-0.17916c0.03257,-0.03257 0.06515,-0.06515 0.11401,-0.08143c0.14658,-0.06515 0.29316,-0.1303 0.45603,-0.19544c0.08143,-0.03257 0.17916,-0.06515 0.27688,-0.09772c0.29316,-0.06515 0.58633,-0.14658 0.87949,-0.21173c0.16287,-0.04886 0.32574,-0.08143 0.50489,-0.11401c0.47232,-0.09772 0.94464,-0.17916 1.41696,-0.27688c0.26059,-0.04886 0.52118,-0.09772 0.78177,-0.1303c0.70034,-0.11401 1.40068,-0.22802 2.08473,-0.34203c0.39089,-0.04886 0.76549,-0.11401 1.14009,-0.17916c10.0979,-1.44954 20.22837,-2.71992 30.35884,-4.00659c14.05562,-1.79157 28.11124,-3.55056 42.18315,-5.30955c39.41437,-4.93495 78.84503,-9.8699 118.27569,-14.80485c41.75969,5.22811 83.51938,10.43994 125.29535,15.68434c13.97419,1.75899 27.94837,3.51798 41.92256,5.27698c9.73958,1.23781 19.47917,2.44304 29.20247,3.77857zM354.05118,720.68642c0,20.32613 0,40.65225 0,60.97838c-5.01637,5.3747 -10.04904,10.74939 -15.06541,16.1078c5.08152,5.16297 10.16304,10.30965 15.24457,15.47261c-0.19544,18.73 -0.40717,37.47629 -0.60262,56.2063c-14.41393,16.36839 -28.82787,32.7205 -43.2418,49.07261c-10.7168,2.54077 -21.4336,5.08153 -32.1504,7.6223c-2.60591,0.63519 -5.21182,1.27038 -7.80144,1.90557c-2.81764,0.71663 -5.63528,1.43325 -8.45292,2.14988c-2.98051,0.78177 -5.9773,1.56355 -8.95781,2.34532c-4.16945,1.10751 -8.32262,2.21503 -12.49208,3.32254c-6.4822,1.79157 -12.98068,3.56684 -19.46288,5.3747c-5.37469,1.53097 -10.73309,3.04566 -16.10777,4.57664c-3.12709,0.91207 -6.23789,1.80785 -9.36498,2.71992c-2.9968,0.8795 -5.9773,1.75899 -8.9741,2.65477c-2.83393,0.84692 -5.65156,1.69384 -8.4692,2.54077c-2.60591,0.81435 -5.2281,1.61241 -7.83401,2.41047c-2.34532,0.7492 -4.70692,1.48211 -7.05224,2.23131c-2.05215,0.68405 -4.12059,1.35182 -6.17275,2.01958c-1.15637,0.40717 -2.31274,0.79806 -3.4854,1.20524c-1.44954,0.52118 -2.91536,1.05865 -4.3649,1.57984c-0.04886,0.01629 -0.08143,0.03257 -0.11401,0.03257c-0.06515,-0.08143 -0.11401,-0.17916 -0.17916,-0.27688c-0.03257,-0.06515 -0.06515,-0.14658 -0.09772,-0.21173c-0.04886,-0.27688 -0.11401,-0.53747 -0.16287,-0.81435c-0.03257,-0.16287 -0.06515,-0.32574 -0.08143,-0.48861c-0.06515,-0.47232 -0.11401,-0.92836 -0.16287,-1.40068c-0.01629,-0.26059 -0.04886,-0.52118 -0.06515,-0.78177c-0.04886,-0.68405 -0.09772,-1.3681 -0.14658,-2.05216c-0.01629,-0.3746 -0.04886,-0.73291 -0.06515,-1.10751c-0.03257,-0.91207 -0.08143,-1.82414 -0.11401,-2.73621c-0.03257,-0.48861 -0.04886,-0.97722 -0.06515,-1.46583c-0.04886,-1.77528 -0.11401,-3.55056 -0.16287,-5.34212c-0.34203,-16.2381 -0.43975,-32.4762 -0.50489,-48.7143c-0.09772,-20.06553 -0.11401,-40.13107 -0.11401,-60.18032c-0.03257,-53.56781 -0.01629,-107.13562 -0.01629,-160.68715c55.11497,0 110.22994,0 165.34491,0c13.84389,14.57683 27.67149,29.15366 41.4991,43.73049zM1019.27455,674.51289c11.15655,15.61919 22.31309,31.2221 33.48593,46.8413c0,42.965 0,85.91371 -0.01629,128.87871c0,16.40097 0,32.80194 -0.03257,49.21919c-0.03257,13.29016 -0.08143,26.59661 -0.32574,39.90305c-0.03257,1.31924 -0.06515,2.63849 -0.09772,3.95773c-0.03257,1.09123 -0.08143,2.19874 -0.11401,3.28997c-0.01629,0.5049 -0.03257,1.02608 -0.04886,1.54726c-0.04886,0.83063 -0.09772,1.67756 -0.14658,2.52448c-0.01629,0.39089 -0.04886,0.78177 -0.06515,1.17266c-0.04886,0.6189 -0.11401,1.23781 -0.16287,1.873c-0.03257,0.27688 -0.04886,0.57004 -0.08143,0.84692c-0.06515,0.43975 -0.1303,0.8795 -0.19544,1.30296c-0.03257,0.19544 -0.06515,0.40717 -0.09772,0.60262c-0.06515,0.27688 -0.14658,0.55376 -0.21173,0.83063c-0.03257,0.1303 -0.08143,0.2443 -0.11401,0.3746c-0.08143,0.14658 -0.16287,0.30945 -0.26059,0.45603c-0.03257,0.06515 -0.08143,0.1303 -0.1303,0.19544c-0.09772,0.06515 -0.17916,0.1303 -0.27688,0.19544c-0.16287,0.03257 -0.32574,0.04886 -0.47232,0.08143c-0.06515,0 -0.1303,0 -0.19544,-0.01629c-0.21173,-0.03257 -0.40717,-0.06515 -0.6189,-0.09772c-0.11401,-0.01629 -0.22802,-0.03257 -0.34203,-0.06515c-0.27688,-0.06515 -0.57004,-0.1303 -0.86321,-0.19544c-0.29316,-0.06515 -0.60262,-0.14658 -0.91207,-0.21173c-0.81435,-0.22802 -1.62869,-0.45603 -2.44304,-0.68405c-0.42346,-0.1303 -0.84692,-0.26059 -1.28667,-0.3746c-0.97722,-0.30945 -1.97072,-0.6189 -2.94793,-0.94464c-0.50489,-0.14658 -1.00979,-0.30945 -1.4984,-0.47232c-1.05865,-0.3746 -2.10101,-0.73291 -3.14338,-1.09123c-0.27688,-0.09772 -0.53747,-0.17916 -0.79806,-0.27688c-0.9935,-0.34203 -2.00329,-0.68405 -3.01308,-1.02608c-1.22152,-0.40717 -2.45933,-0.81435 -3.68085,-1.22152c-3.45283,-1.1238 -6.90566,-2.2476 -10.35849,-3.35511c-2.21502,-0.68405 -4.41376,-1.38439 -6.61249,-2.06844c-3.2411,-1.00979 -6.49849,-2.0033 -9.73958,-3.01309c-7.606,-2.31275 -15.21199,-4.60921 -22.8017,-6.92196c-0.16287,-13.58332 -0.32574,-27.18294 -0.47232,-40.76626c-0.04886,-2.52448 -0.08143,-5.03267 -0.1303,-7.55715c-0.04886,-2.34532 -0.11401,-4.69064 -0.16287,-7.03597c-0.06515,-2.1173 -0.1303,-4.23461 -0.19544,-6.35191c-0.08143,-1.82414 -0.14658,-3.66457 -0.22802,-5.48871c-0.04886,-1.02608 -0.09772,-2.05216 -0.14658,-3.06195c-0.03257,-0.48861 -0.04886,-0.96093 -0.08143,-1.43325c-0.04886,-0.76549 -0.11401,-1.53097 -0.16287,-2.29646c-0.01629,-0.17916 -0.03257,-0.34203 -0.04886,-0.52118c-0.01629,-0.29317 -0.04886,-0.58633 -0.08143,-0.8795c-0.01629,-0.1303 -0.01629,-0.27688 -0.03257,-0.40717c-0.03257,-0.21173 -0.06515,-0.42346 -0.08143,-0.65148c-0.01629,-0.09772 -0.03257,-0.19544 -0.04886,-0.29317c-0.03257,-0.1303 -0.04886,-0.26059 -0.08143,-0.39089c-0.03257,-0.11401 -0.08143,-0.22802 -0.11401,-0.32574c-0.03257,-0.03257 -0.06515,-0.04886 -0.08143,-0.08143c-0.21173,-0.06515 -0.42346,-0.14658 -0.63519,-0.22802c-0.1303,-0.04886 -0.26059,-0.08143 -0.39089,-0.1303c-0.40717,-0.09772 -0.79806,-0.21173 -1.20523,-0.32574c-0.21173,-0.04886 -0.43975,-0.11401 -0.65148,-0.16287c-0.57004,-0.1303 -1.14009,-0.27688 -1.69384,-0.40717c-0.29316,-0.06515 -0.60262,-0.1303 -0.89578,-0.21173c-1.05865,-0.22802 -2.1173,-0.45603 -3.19224,-0.68405c-1.22152,-0.26059 -2.44304,-0.52118 -3.66456,-0.78177c-1.79156,-0.35831 -3.58312,-0.71663 -5.39097,-1.07494c-2.93165,-0.57004 -5.84701,-1.1238 -8.77866,-1.67756c-2.42675,-0.43975 -4.83722,-0.8795 -7.24768,-1.31924c-1.35182,-0.22802 -2.70363,-0.45603 -4.07173,-0.70034c-1.23781,-0.19544 -2.47561,-0.40717 -3.71342,-0.6189c-0.73291,-0.11401 -1.46582,-0.22802 -2.19874,-0.34203c-0.35831,-0.04886 -0.70034,-0.09772 -1.05865,-0.14658c-0.60262,-0.09772 -1.20523,-0.17916 -1.80785,-0.26059c-0.29316,-0.03257 -0.57004,-0.08143 -0.84692,-0.11401c-0.45603,-0.04886 -0.91207,-0.09772 -1.35182,-0.14658c-0.47232,-0.03257 -0.94464,-0.06515 -1.41696,-0.09772c-0.1303,0 -0.2443,0 -0.35831,0c-0.19544,0.04886 -0.39089,0.09772 -0.60262,0.14658c-0.08143,0.03257 -0.17916,0.08143 -0.26059,0.11401c-0.14658,0.19544 -0.29316,0.3746 -0.43975,0.57004c-0.08143,0.11401 -0.14658,0.22802 -0.21173,0.34203c-0.09772,0.40717 -0.21173,0.81435 -0.30945,1.20524c-0.01629,0.1303 -0.04886,0.2443 -0.06515,0.35831c-0.04886,0.29317 -0.08143,0.58633 -0.11401,0.86321c-0.01629,0.16287 -0.04886,0.30945 -0.06515,0.47232c-0.03257,0.3746 -0.04886,0.73291 -0.08143,1.10751c-0.01629,0.19544 -0.03257,0.39089 -0.04886,0.58633c-0.01629,0.47232 -0.03257,0.92836 -0.06515,1.38439c0,0.2443 -0.01629,0.48861 -0.03257,0.73291c0,0.57004 -0.01629,1.1238 -0.03257,1.69384c-0.01629,0.29317 -0.01629,0.58633 -0.01629,0.8795c-0.01629,1.02608 -0.03257,2.05216 -0.03257,3.07824c0,1.20524 0,2.41047 0,3.61571c0.06515,11.14028 0.27688,22.26427 0.30945,33.40455c0,1.18895 0,2.36161 0,3.55056c0,1.05865 -0.01629,2.1173 -0.01629,3.15967c-0.01629,0.94464 -0.03257,1.873 -0.04886,2.81764c-0.01629,0.81435 -0.03257,1.64498 -0.06515,2.45933c-0.01629,0.48861 -0.03257,0.96093 -0.04886,1.43325c-0.01629,0.47232 -0.04886,0.92836 -0.06515,1.40068c-0.04886,0.71663 -0.11401,1.43325 -0.16287,2.14988c-0.03257,0.32574 -0.04886,0.65148 -0.08143,0.97722c-0.08143,0.47232 -0.14658,0.92836 -0.22802,1.40068c-0.04886,0.19544 -0.08143,0.40717 -0.11401,0.6189c-0.09772,0.22802 -0.19544,0.47232 -0.29316,0.71663c-0.17916,0.14658 -0.34203,0.27688 -0.52118,0.42346c-0.03257,0 -0.08143,0 -0.1303,0c-0.26059,-0.03257 -0.52118,-0.08143 -0.78177,-0.11401c-0.14658,-0.03257 -0.30945,-0.04886 -0.45603,-0.08143c-0.47232,-0.08143 -0.92836,-0.16287 -1.40068,-0.2443c-0.2443,-0.04886 -0.50489,-0.09772 -0.7492,-0.14658c-0.9935,-0.19544 -1.97072,-0.39089 -2.94793,-0.57004c-1.20523,-0.26059 -2.41047,-0.5049 -3.6157,-0.7492c-2.41047,-0.5049 -4.83722,-1.00979 -7.24768,-1.53097c-3.33882,-0.71663 -6.67764,-1.44954 -10.01646,-2.16617c-1.15637,-0.26059 -2.31274,-0.52118 -3.4854,-0.76549c-3.58312,-0.78177 -7.18254,-1.54726 -10.78195,-2.31275c-4.31604,-0.91207 -8.63207,-1.80785 -12.9644,-2.68735c-1.31924,-0.26059 -2.65477,-0.52118 -3.97401,-0.78177c-0.73291,-0.14658 -1.46582,-0.27688 -2.19874,-0.42346c-0.89578,-0.16287 -1.79156,-0.32574 -2.68734,-0.48861c-3.58312,-0.6189 -7.16625,-1.22152 -10.74937,-1.84043c-0.35831,-12.18265 -0.71662,-24.34901 -1.09122,-36.53165c-0.48861,-18.38798 -0.68405,-36.80853 -0.84692,-55.21279c-0.30945,-33.9746 -0.19544,-67.9492 -0.19544,-101.9238c13.30642,-12.96442 26.61284,-25.92884 39.90298,-38.89326c44.49589,0.2443 88.9755,0.47232 133.4551,0.71663zM697.93342,681.614c0.1303,4.03917 0.2443,8.06205 0.34203,12.10121c0.17916,7.06854 0.35831,14.15337 0.53747,21.22191c0.45603,18.38798 0.87949,36.79224 1.31924,55.18022c15.78204,-24.91905 31.48264,-49.88696 47.49269,-74.64314c2.42675,-3.72971 4.86979,-7.45943 7.32912,-11.17285c0.50489,-0.78177 1.02608,-1.54726 1.53097,-2.31275c0.43975,-0.63519 0.87949,-1.28667 1.30295,-1.92186c0.35831,-0.52118 0.71662,-1.02608 1.05865,-1.53097c0.19544,-0.26059 0.3746,-0.52118 0.55376,-0.78177c0.08143,-0.11401 0.16287,-0.22802 0.2443,-0.34203c0.1303,-0.16287 0.2443,-0.30945 0.3746,-0.47232c0.09772,-0.11401 0.21173,-0.2443 0.30945,-0.35831c0.04886,-0.03257 0.09772,-0.06515 0.1303,-0.08143c0.29316,-0.06515 0.60262,-0.11401 0.89578,-0.17916c0.17916,-0.01629 0.3746,-0.04886 0.55376,-0.06515c0.55376,-0.04886 1.10751,-0.09772 1.66127,-0.14658c0.29316,-0.03257 0.60262,-0.04886 0.91207,-0.08143c0.76549,-0.03257 1.53097,-0.08143 2.29646,-0.11401c0.40717,-0.03257 0.81435,-0.04886 1.23781,-0.06515c1.43325,-0.04886 2.8665,-0.11401 4.31604,-0.16287c1.64498,-0.03257 3.28996,-0.08143 4.93494,-0.1303c2.39418,-0.03257 4.78836,-0.08143 7.18254,-0.11401c3.84372,-0.03257 7.68743,-0.06515 11.53115,-0.08143c2.4919,0 4.96751,0.01629 7.45941,0.03257c0.58633,0 1.18895,0 1.79156,0.01629c1.69384,0.01629 3.38768,0.03257 5.06524,0.06515c1.4984,0.03257 2.9968,0.06515 4.49519,0.09772c0.84692,0.03257 1.69384,0.06515 2.54076,0.09772c0.40717,0.01629 0.79806,0.03257 1.20523,0.04886c0.65148,0.03257 1.28667,0.06515 1.93814,0.11401c0.29316,0.01629 0.58633,0.03257 0.89578,0.06515c0.40717,0.03257 0.81435,0.08143 1.22152,0.1303c0.08143,0.01629 0.17916,0.03257 0.26059,0.03257c0.11401,0.03257 0.2443,0.06515 0.35831,0.08143c0.09772,0.04886 0.19544,0.08143 0.30945,0.1303c0.01629,0.01629 0.03257,0.03257 0.04886,0.06515c-0.06515,0.17916 -0.1303,0.3746 -0.19544,0.57004c-0.04886,0.11401 -0.09772,0.22802 -0.1303,0.35831c-0.19544,0.3746 -0.39089,0.7492 -0.58633,1.1238c-0.11401,0.22802 -0.21173,0.43975 -0.32574,0.65148c-0.30945,0.55376 -0.63519,1.10751 -0.94464,1.66127c-0.16287,0.29317 -0.34203,0.60262 -0.50489,0.89578c-0.42346,0.71663 -0.84692,1.43325 -1.27038,2.16617c-0.22802,0.3746 -0.45603,0.7492 -0.66776,1.1238c-0.79806,1.33553 -1.61241,2.65477 -2.41047,3.97402c-0.94464,1.51469 -1.88928,3.04566 -2.81764,4.56035c-1.07494,1.71013 -2.14987,3.42026 -3.22481,5.13039c-1.17266,1.873 -2.3616,3.72971 -3.55055,5.60271c-6.09131,9.52787 -12.26406,19.00688 -18.45309,28.45332c-2.13359,3.22482 -4.28346,6.44964 -6.41705,9.67445c-3.27367,4.90237 -6.54735,9.78846 -9.83731,14.69084c-4.62549,6.85681 -9.25098,13.71362 -13.87646,20.57043c4.03916,6.97082 8.0946,13.94164 12.06862,20.94503c6.66135,11.72661 13.24127,23.4858 19.82119,35.24498c12.65494,22.63887 25.21217,45.31032 37.76939,67.98177c-1.59612,-0.08143 -3.19224,-0.14658 -4.80464,-0.22802c-0.3746,-0.03257 -0.76549,-0.06515 -1.15637,-0.08143c-0.21173,-0.03257 -0.43975,-0.04886 -0.65148,-0.06515c-0.92836,-0.08143 -1.85671,-0.16287 -2.78507,-0.26059c-6.56363,-0.63519 -13.14355,-1.33553 -19.70719,-2.03587c-3.22481,-0.35831 -6.44962,-0.71663 -9.67444,-1.09123c-1.95443,-0.22802 -3.90886,-0.45603 -5.86329,-0.70034c-1.17266,-0.16287 -2.3616,-0.32574 -3.55055,-0.47232c-0.57004,-0.08143 -1.14009,-0.16287 -1.71013,-0.2443c-1.04236,-0.14658 -2.08473,-0.30945 -3.12709,-0.45603c-0.48861,-0.08143 -0.9935,-0.16287 -1.4984,-0.22802c-0.87949,-0.14658 -1.75899,-0.30945 -2.63848,-0.45603c-0.42346,-0.06515 -0.84692,-0.14658 -1.27038,-0.21173c-0.70034,-0.14658 -1.41696,-0.29317 -2.13359,-0.42346c-0.32574,-0.08143 -0.66776,-0.14658 -0.9935,-0.21173c-0.53747,-0.1303 -1.05865,-0.26059 -1.59612,-0.39089c-0.22802,-0.06515 -0.47232,-0.1303 -0.71662,-0.19544c-0.32574,-0.11401 -0.65148,-0.2443 -0.9935,-0.35831c-0.26059,-0.16287 -0.52118,-0.32574 -0.78177,-0.48861c0,-0.01629 -0.01629,-0.04886 -0.03257,-0.06515c-0.06515,-0.09772 -0.1303,-0.21173 -0.17916,-0.30945c-0.03257,-0.06515 -0.08143,-0.11401 -0.11401,-0.17916c-0.14658,-0.27688 -0.29316,-0.53747 -0.43975,-0.81435c-0.55376,-0.9935 -1.10751,-2.0033 -1.64498,-2.9968c-6.12389,-11.38459 -12.16634,-22.81803 -18.20879,-34.25148c-11.23798,-21.28706 -22.49225,-42.57411 -34.13741,-63.63315c-0.7492,-1.33553 -1.4984,-2.68735 -2.26388,-4.02288c-0.63519,-1.1238 -1.27038,-2.2476 -1.90557,-3.35511c-0.35831,-0.6189 -0.70034,-1.22152 -1.05865,-1.82414c-0.16287,-0.29317 -0.32574,-0.57004 -0.50489,-0.86321c-0.26059,-0.43975 -0.53747,-0.89578 -0.81435,-1.35182c-0.1303,-0.21173 -0.26059,-0.40717 -0.3746,-0.6189c-0.19544,-0.29317 -0.39089,-0.58633 -0.58633,-0.8795c-0.08143,-0.1303 -0.16287,-0.26059 -0.26059,-0.39089c-0.09772,-0.1303 -0.21173,-0.26059 -0.32574,-0.39089c-0.06515,-0.01629 -0.1303,-0.03257 -0.21173,-0.04886c0,0.01629 0,0.03257 0,0.04886c-0.03257,4.51149 -0.01629,9.00669 -0.01629,13.51818c0,8.22491 0,16.46612 0.01629,24.69103c0.03257,24.235 0.06515,48.48628 0.09772,72.72128c-8.81123,-0.26059 -17.62246,-0.5049 -26.44997,-0.76549c-3.22481,-0.1303 -6.43334,-0.2443 -9.65815,-0.39089c-1.98701,-0.09772 -3.97401,-0.19544 -5.94473,-0.30945c-0.47232,-0.01629 -0.94464,-0.04886 -1.43325,-0.08143c-1.28667,-0.08143 -2.58962,-0.16287 -3.89258,-0.2443c-0.7492,-0.04886 -1.51468,-0.09772 -2.26388,-0.16287c-0.35831,-0.01629 -0.71662,-0.04886 -1.07494,-0.08143c-0.60262,-0.04886 -1.20523,-0.09772 -1.80785,-0.16287c-0.70034,-0.06515 -1.40068,-0.14658 -2.1173,-0.22802c-2.70363,-0.3746 -5.42355,-0.73291 -8.14347,-1.10751c0,-69.48017 0,-138.94406 0,-208.42423c20.35866,-0.29317 40.71733,-0.58633 61.07599,-0.8795c0.08143,2.1173 0.16287,4.23461 0.2443,6.35191zM600.78188,677.77028c0.27688,57.00436 0.55376,114.00872 0.81435,171.01308c-12.19891,12.76898 -24.4304,25.53795 -36.64559,38.30693c-4.08802,0 -8.17604,-0.01629 -12.26406,-0.01629c-0.66776,0.01629 -1.31924,0.01629 -1.98701,0.03257c-0.34203,0 -0.68405,0.01629 -1.02608,0.01629c-1.15637,0.03257 -2.31274,0.06515 -3.46912,0.09772c-1.28667,0.04886 -2.58962,0.09772 -3.87629,0.16287c-1.41696,0.06515 -2.83393,0.1303 -4.25089,0.19544c-1.53097,0.09772 -3.04566,0.17916 -4.57663,0.26059c-2.18245,0.1303 -4.3649,0.26059 -6.54735,0.39089c-3.56684,0.26059 -7.13368,0.5049 -10.70051,0.7492c-3.81114,0.30945 -7.62228,0.60262 -11.43342,0.89578c-2.63848,0.22802 -5.27697,0.45603 -7.91545,0.68405c-7.9806,0.76549 -15.97748,1.51469 -23.95807,2.28017c-13.84389,1.43325 -27.68778,2.81764 -41.53167,4.10431c-13.30642,-10.47252 -26.61284,-20.96132 -39.90298,-31.43383c0,-42.42753 -0.14658,-84.87135 0.52118,-127.29888c0.11401,-7.31285 0.2443,-14.62569 0.43975,-21.95482c0.34203,-13.111 0.78177,-26.23829 1.18895,-39.36558c25.06559,0.29317 50.13117,0.58633 75.21304,0.8795c-0.39089,56.33659 -0.76549,112.68948 -1.15637,169.02607c7.31283,-0.40717 14.64195,-0.81435 21.97107,-1.22152c2.7362,-0.17916 5.4887,-0.35831 8.24119,-0.53747c2.16616,-0.14658 4.33232,-0.29317 6.49849,-0.45603c1.17266,-0.09772 2.34532,-0.17916 3.51798,-0.27688c1.02608,-0.08143 2.05215,-0.16287 3.09452,-0.26059c0.57004,-0.04886 1.14009,-0.09772 1.72641,-0.16287c0.70034,-0.06515 1.40068,-0.14658 2.1173,-0.21173c2.85021,-0.32574 5.70043,-0.63519 8.55064,-0.96093c0,-17.24789 -0.01629,-34.49578 0,-51.72738c0,-8.58323 0.06515,-17.16646 0.1303,-25.7334c0.16287,-13.32273 0.32574,-26.62918 0.58633,-39.93563c0.35831,-16.14038 0.92836,-32.28075 1.43325,-48.42113c25.06559,0.29317 50.13117,0.58633 75.21304,0.8795zM264.09846,834.10881c-0.11401,0.01629 -0.2443,0.04886 -0.35831,0.06515c-8.30633,1.48211 -16.61267,2.85022 -24.93529,4.2509c-1.48211,0.26059 -2.96422,0.53747 -4.44633,0.79806c-0.34203,0.06515 -0.70034,0.1303 -1.05865,0.19544c-0.97722,0.17916 -1.95443,0.35831 -2.93165,0.53747c-0.84692,0.17916 -1.69384,0.34203 -2.54076,0.5049c-0.47232,0.09772 -0.94464,0.19544 -1.41696,0.29317c-0.22802,0.04886 -0.45603,0.09772 -0.66776,0.14658c-0.35831,0.08143 -0.71662,0.16287 -1.07494,0.2443c-0.16287,0.03257 -0.32574,0.08143 -0.48861,0.11401c-0.21173,0.06515 -0.43975,0.1303 -0.65148,0.17916c-0.16287,0.06515 -0.32574,0.1303 -0.48861,0.19544c-0.01629,0.01629 -0.03257,0.01629 -0.04886,0.03257c-0.01629,0.14658 -0.04886,0.29317 -0.06515,0.45603c-0.01629,0.08143 -0.03257,0.17916 -0.04886,0.27688c-0.01629,0.29317 -0.04886,0.58633 -0.06515,0.89578c-0.01629,0.16287 -0.03257,0.32574 -0.04886,0.48861c-0.01629,0.42346 -0.04886,0.84692 -0.08143,1.28667c0,0.21173 -0.01629,0.43975 -0.03257,0.66777c-0.04886,0.81435 -0.08143,1.6287 -0.11401,2.44304c-0.04886,0.94464 -0.08143,1.88929 -0.11401,2.83393c-0.06515,1.40068 -0.11401,2.78507 -0.16287,4.18575c-0.06515,2.29646 -0.1303,4.59292 -0.17916,6.90567c-0.04886,2.29646 -0.09772,4.59292 -0.14658,6.88938c-0.01629,1.72642 -0.03257,3.45284 -0.04886,5.17925c-0.01629,0.91207 -0.01629,1.80785 -0.01629,2.70364c0,0.52118 0,1.04237 0.01629,1.56355c0,0.2443 0,0.48861 0,0.73291c0.01629,0.40717 0.01629,0.79806 0.03257,1.20524c0.01629,0.47232 0.03257,0.92836 0.06515,1.38439c0,0.11401 0.01629,0.22802 0.01629,0.34203c0.06515,0.17916 0.1303,0.3746 0.19544,0.55376c0.04886,0.08143 0.08143,0.16287 0.1303,0.2443c0.17916,0.11401 0.34203,0.22802 0.52118,0.34203c0.09772,0.04886 0.21173,0.09772 0.30945,0.14658c0.32574,0.03257 0.66776,0.08143 0.9935,0.11401c0.17916,0.01629 0.3746,0.03257 0.57004,0.03257c0.53747,-0.03257 1.07494,-0.06515 1.61241,-0.11401c0.29316,-0.03257 0.58633,-0.04886 0.89578,-0.08143c0.78177,-0.1303 1.57983,-0.2443 2.37789,-0.35831c0.21173,-0.04886 0.42346,-0.08143 0.63519,-0.11401c0.48861,-0.08143 0.97722,-0.17916 1.46582,-0.26059c0.26059,-0.04886 0.52118,-0.09772 0.76549,-0.14658c0.86321,-0.16287 1.72641,-0.32574 2.60591,-0.5049c0.9935,-0.19544 1.98701,-0.39089 2.98051,-0.60262c10.16304,-2.1173 20.32609,-4.34862 30.47285,-6.53107c0.30945,-13.89278 0.6189,-27.78555 0.91207,-41.67833c-1.77528,0.32574 -3.55055,0.63519 -5.34211,0.96093zM922.46503,795.47614c6.31933,0.76549 12.65494,1.54726 18.99056,2.31275c2.3616,0.30945 4.7395,0.60262 7.11739,0.91207c2.88279,0.39089 5.76557,0.78177 8.63207,1.17266c0.89578,0.1303 1.77528,0.26059 2.67106,0.39089c0.48861,0.08143 0.9935,0.14658 1.48211,0.22802c0.60262,0.09772 1.20523,0.19544 1.80785,0.29317c0.32574,0.04886 0.63519,0.11401 0.94464,0.16287c0.84692,0.14658 1.67755,0.30945 2.50819,0.47232c0.48861,0.08143 0.97722,0.17916 1.46582,0.26059c0.2443,0.04886 0.47232,0.08143 0.70034,0.1303c0.42346,0.04886 0.83063,0.11401 1.25409,0.17916c0.19544,0.01629 0.39089,0.04886 0.60262,0.06515c0.34203,0.01629 0.68405,0.03257 1.04236,0.04886c0.16287,0 0.32574,0 0.48861,0c0.29316,-0.04886 0.58633,-0.09772 0.87949,-0.1303c0.1303,-0.03257 0.26059,-0.06515 0.40717,-0.09772c0.22802,-0.11401 0.45603,-0.22802 0.70034,-0.35831c0.09772,-0.06515 0.21173,-0.1303 0.32574,-0.19544c0.17916,-0.21173 0.35831,-0.40717 0.53747,-0.6189c0.09772,-0.11401 0.17916,-0.22802 0.26059,-0.34203c0.1303,-0.30945 0.27688,-0.60262 0.40717,-0.91207c0.06515,-0.17916 0.1303,-0.34203 0.19544,-0.5049c0.09772,-0.42346 0.19544,-0.84692 0.29316,-1.27038c0.04886,-0.22802 0.09772,-0.45603 0.1303,-0.66777c0.06515,-0.55376 0.1303,-1.10751 0.19544,-1.66127c0.03257,-0.29317 0.06515,-0.58633 0.09772,-0.8795c0.03257,-0.70034 0.06515,-1.40068 0.09772,-2.08473c0.01629,-0.3746 0.03257,-0.73291 0.04886,-1.10751c0.01629,-0.84692 0.03257,-1.71013 0.04886,-2.55705c0,-0.45603 0,-0.89578 0,-1.35182c0,-1.56355 0,-3.1271 -0.01629,-4.69064c-0.08143,-5.63529 -0.17916,-11.25429 -0.26059,-16.88958c-0.1303,-10.35851 -0.29316,-20.7333 -0.57004,-31.09181c-0.03257,-0.83063 -0.04886,-1.67756 -0.08143,-2.50819c-0.01629,-0.3746 -0.03257,-0.7492 -0.04886,-1.14009c-0.01629,-0.17916 -0.01629,-0.35831 -0.03257,-0.55376c0,-0.08143 0,-0.16287 -0.01629,-0.2443c0,-0.09772 -0.01629,-0.21173 -0.01629,-0.32574c-0.01629,-0.06515 -0.03257,-0.14658 -0.04886,-0.21173c0,0 0,-0.01629 -0.01629,-0.01629c-0.19544,-0.03257 -0.39089,-0.04886 -0.58633,-0.06515c-0.11401,-0.01629 -0.2443,-0.03257 -0.3746,-0.04886c-0.40717,-0.03257 -0.81435,-0.06515 -1.22152,-0.09772c-0.2443,-0.01629 -0.47232,-0.03257 -0.70034,-0.04886c-0.92836,-0.06515 -1.85671,-0.1303 -2.78507,-0.19544c-7.01967,-0.45603 -14.05562,-0.84692 -21.10786,-1.22152c-8.81123,-0.45603 -17.63875,-0.92836 -26.46626,-1.38439c0,22.94833 0,45.89665 0,68.84498zM254.40774,736.81051c-1.41696,0.04886 -2.85021,0.11401 -4.26718,0.16287c-0.71662,0.03257 -1.44954,0.06515 -2.16616,0.09772c-1.48211,0.08143 -2.94793,0.16287 -4.43004,0.2443c-0.71662,0.03257 -1.44954,0.08143 -2.16616,0.11401c-1.35182,0.09772 -2.68734,0.17916 -4.03916,0.27688c-0.30945,0.01629 -0.63519,0.04886 -0.96093,0.06515c-0.58633,0.04886 -1.17266,0.09772 -1.75899,0.1303c-0.76549,0.08143 -1.54726,0.14658 -2.32903,0.21173c-3.38768,0.32574 -6.77536,0.66777 -10.17933,0.9935c0,8.15977 0,16.30325 0.01629,24.46301c0,1.22152 0.01629,2.42676 0.01629,3.64828c0.03257,0.97722 0.04886,1.97072 0.06515,2.94794c0,0.45603 0.01629,0.91207 0.03257,1.3681c0.03257,0.73291 0.06515,1.46583 0.09772,2.18245c0.03257,0.34203 0.04886,0.68405 0.06515,1.00979c0.06515,0.52118 0.1303,1.02608 0.17916,1.53097c0.03257,0.2443 0.06515,0.47232 0.09772,0.70034c0.08143,0.34203 0.17916,0.66777 0.26059,0.9935c0.04886,0.14658 0.09772,0.29317 0.14658,0.43975c0.11401,0.19544 0.2443,0.3746 0.35831,0.57004c0.06515,0.08143 0.1303,0.16287 0.19544,0.22802c0.16287,0.08143 0.30945,0.16287 0.47232,0.2443c0.27688,0.04886 0.57004,0.08143 0.86321,0.1303c0.06515,0 0.1303,0 0.19544,0c0.2443,-0.01629 0.48861,-0.01629 0.73291,-0.03257c0.14658,-0.01629 0.27688,-0.01629 0.42346,-0.03257c0.60262,-0.03257 1.18895,-0.06515 1.79156,-0.11401c0.76549,-0.04886 1.53097,-0.11401 2.31274,-0.17916c3.46912,-0.27688 6.93823,-0.58633 10.40735,-0.89578c2.21502,-0.21173 4.44633,-0.40717 6.66135,-0.6189c2.93165,-0.27688 5.84701,-0.52118 8.77866,-0.78177c0.76549,-0.08143 1.54726,-0.14658 2.31274,-0.22802c0.3746,-0.03257 0.7492,-0.06515 1.10751,-0.11401c0.65148,-0.06515 1.30295,-0.14658 1.95443,-0.22802c0.29316,-0.03257 0.60262,-0.08143 0.91207,-0.11401c0.53747,-0.09772 1.07494,-0.19544 1.59612,-0.27688c0.26059,-0.04886 0.50489,-0.09772 0.76549,-0.14658c0.42346,-0.11401 0.84692,-0.2443 1.27038,-0.35831c0.19544,-0.04886 0.40717,-0.11401 0.60262,-0.17916c0.32574,-0.14658 0.65148,-0.29317 0.9935,-0.45603c0.14658,-0.08143 0.30945,-0.14658 0.45603,-0.22802c0.26059,-0.19544 0.50489,-0.39089 0.7492,-0.58633c0.11401,-0.09772 0.22802,-0.21173 0.34203,-0.30945c0.17916,-0.2443 0.35831,-0.48861 0.52118,-0.73291c0.08143,-0.1303 0.16287,-0.26059 0.2443,-0.39089c0.11401,-0.30945 0.22802,-0.6189 0.34203,-0.92836c0.04886,-0.16287 0.09772,-0.32574 0.14658,-0.48861c0.06515,-0.39089 0.1303,-0.76549 0.19544,-1.15637c0.03257,-0.19544 0.04886,-0.40717 0.08143,-0.60262c0.01629,-0.47232 0.04886,-0.92836 0.06515,-1.40068c0.01629,-0.2443 0.01629,-0.48861 0.03257,-0.73291c-0.01629,-0.55376 -0.01629,-1.10751 -0.01629,-1.66127c-0.01629,-0.29317 -0.01629,-0.58633 -0.01629,-0.8795c-0.06515,-1.77528 -0.1303,-3.55056 -0.19544,-5.32584c-0.04886,-1.30296 -0.08143,-2.58963 -0.1303,-3.89258c-0.14658,-6.3682 -0.29316,-12.72012 -0.45603,-19.08832c-5.24439,0.1303 -10.48878,0.27688 -15.74946,0.40717zM163.33123,26.42218c0.03257,0.09772 0.06515,0.17916 0.09772,0.27688c0.01629,0.2443 0.03257,0.48861 0.06515,0.73291c0,0.01629 0,0.03257 0,0.06515c0.06515,0.22802 0.1303,0.45603 0.19544,0.70034c0.01629,0.06515 0.04886,0.14658 0.06515,0.22802c0.09772,0.30945 0.19544,0.6189 0.29316,0.92836c0.14658,0.42346 0.27688,0.84692 0.40717,1.27038c4.77207,14.65826 9.78844,29.23509 14.73967,43.82821c8.04574,23.71381 16.10777,47.44391 24.18609,71.14144c23.95807,70.32709 47.96501,140.62161 71.87422,210.94871c69.30089,30.79864 138.58549,61.59728 207.87009,92.39592c77.90039,0 155.80077,0 233.68487,0c69.23574,-30.76607 138.47148,-61.54842 207.69093,-92.31449c32.10154,-94.05719 64.15422,-188.13067 96.30462,-282.17158c1.15637,-3.33883 2.31274,-6.66137 3.46912,-10.00019c1.09122,-3.06195 2.16616,-6.1239 3.25739,-9.18585c0.83063,-2.29646 1.66127,-4.57664 2.4919,-6.85681c0.45603,-1.2541 0.91207,-2.50819 1.38439,-3.746c0.42346,-1.15637 0.84692,-2.29646 1.28667,-3.43655c0.39089,-1.02608 0.78177,-2.06844 1.17266,-3.09452c0.35831,-0.89578 0.70034,-1.80785 1.05865,-2.71992c0.30945,-0.76549 0.6189,-1.54726 0.92836,-2.31275c0.17916,-0.43975 0.3746,-0.86321 0.55376,-1.28667c0.08143,-0.21173 0.16287,-0.40717 0.2443,-0.6189c0.14658,-0.32574 0.30945,-0.66777 0.45603,-0.9935c0.06515,-0.14658 0.1303,-0.30945 0.19544,-0.45603c0.11401,-0.22802 0.22802,-0.45603 0.34203,-0.68405c0.06515,-0.09772 0.11401,-0.19544 0.16287,-0.29317c0.08143,-0.11401 0.14658,-0.2443 0.22802,-0.35831c0.08143,-0.04886 0.14658,-0.08143 0.21173,-0.1303c0.03257,0.03257 0.06515,0.06515 0.09772,0.08143c0.09772,0.2443 0.21173,0.48861 0.32574,0.71663c0.06515,0.14658 0.1303,0.29317 0.17916,0.45603c0.17916,0.45603 0.35831,0.91207 0.52118,1.3681c0.09772,0.2443 0.19544,0.5049 0.29316,0.7492c0.22802,0.65148 0.45603,1.30296 0.68405,1.93815c0.11401,0.35831 0.22802,0.70034 0.35831,1.04237c0.42346,1.23781 0.83063,2.47562 1.25409,3.71343c0.47232,1.44954 0.94464,2.89908 1.41696,4.34862c0.52118,1.61241 1.02608,3.22482 1.54726,4.83723c0.35831,1.15637 0.73291,2.31275 1.09122,3.46912c5.99359,19.44663 11.93832,38.89326 18.02963,58.30732c-1.41696,60.55492 -2.88279,121.10983 -4.2346,181.66475c-0.48861,22.06883 -0.96093,44.13766 -1.41696,66.20649c-0.27688,14.05565 -0.6189,28.11129 -0.73291,42.16694c0,0.39089 0,0.76549 0,1.15637c-0.01629,6.38449 -0.01629,12.75269 -0.01629,19.13718c-14.7071,16.54755 -29.34905,33.12768 -44.21901,49.52865c-0.53747,0.58633 -1.07494,1.17266 -1.61241,1.75899c-0.08143,0.08143 -0.14658,0.14658 -0.21173,0.22802c-7.76887,8.43665 -15.44001,16.97101 -23.11115,25.50538c-13.59959,15.08172 -27.19917,30.17974 -40.78247,45.26146c-47.78585,29.78885 -95.55542,59.56141 -143.32498,89.33398c-86.32073,-0.09772 -172.64146,-0.1303 -258.96219,-0.30945c-30.04939,-0.06515 -60.09877,-0.14658 -90.14816,-0.29317c-10.21191,-0.03257 -20.4401,-0.09772 -30.66829,-0.16287c-7.62228,-0.04886 -15.24457,-0.09772 -22.86685,-0.22802c-0.47232,-0.01629 -0.94464,-0.03257 -1.41696,-0.04886c-0.21173,0 -0.43975,0 -0.65148,-0.01629c-0.09772,0 -0.17916,0 -0.27688,-0.01629c-0.09772,0 -0.19544,-0.01629 -0.29316,-0.01629c-0.11401,-0.01629 -0.21173,-0.01629 -0.30945,-0.03257c-0.2443,-0.04886 -0.48861,-0.11401 -0.73291,-0.17916c-0.1303,-0.03257 -0.27688,-0.06515 -0.40717,-0.09772c-0.30945,-0.11401 -0.63519,-0.22802 -0.96093,-0.34203c-0.16287,-0.06515 -0.34203,-0.1303 -0.50489,-0.19544c-0.40717,-0.16287 -0.81435,-0.34203 -1.20523,-0.5049c-0.21173,-0.09772 -0.42346,-0.19544 -0.63519,-0.27688c-0.48861,-0.22802 -0.97722,-0.47232 -1.46582,-0.70034c-0.2443,-0.1303 -0.50489,-0.2443 -0.76549,-0.3746c-0.57004,-0.29317 -1.15637,-0.58633 -1.72641,-0.8795c-0.30945,-0.16287 -0.60262,-0.32574 -0.91207,-0.47232c-0.66776,-0.3746 -1.35182,-0.73291 -2.01958,-1.09123c-0.35831,-0.19544 -0.70034,-0.39089 -1.05865,-0.58633c-0.78177,-0.42346 -1.56355,-0.86321 -2.34532,-1.30296c-0.39089,-0.22802 -0.79806,-0.45603 -1.20523,-0.68405c-1.35182,-0.78177 -2.70363,-1.54726 -4.05545,-2.32904c-1.51468,-0.89578 -3.04566,-1.79157 -4.56034,-2.68735c-1.71013,-1.02608 -3.42026,-2.03587 -5.13038,-3.06195c-15.19571,-9.16956 -30.24483,-18.53456 -45.29395,-27.91585c-14.29992,-8.92525 -28.59985,-17.83422 -42.91606,-26.74319c-7.70372,-4.80465 -15.40744,-9.62559 -23.16001,-14.3651c-0.06515,-0.04886 -0.1303,-0.08143 -0.21173,-0.1303c-0.22802,-0.19544 -0.47232,-0.39089 -0.70034,-0.58633c-0.14658,-0.11401 -0.27688,-0.22802 -0.40717,-0.34203c-0.35831,-0.32574 -0.71662,-0.65148 -1.07494,-0.9935c-0.17916,-0.17916 -0.3746,-0.35831 -0.57004,-0.53747c-0.47232,-0.45603 -0.92836,-0.91207 -1.40068,-1.3681c-0.2443,-0.2443 -0.48861,-0.48861 -0.73291,-0.73291c-0.86321,-0.86321 -1.72641,-1.7427 -2.58962,-2.60591c-1.00979,-1.04237 -2.00329,-2.06844 -3.01308,-3.11081c-1.1238,-1.17266 -2.2476,-2.36161 -3.37139,-3.53427c-6.09131,-6.43335 -12.13376,-12.89927 -18.14364,-19.39777c-16.8244,-18.30654 -33.5185,-36.72709 -50.04974,-55.29423c-6.41705,-7.23141 -12.80153,-14.47911 -19.12086,-21.80824c-1.07494,-1.23781 -2.14987,-2.4919 -3.20853,-3.746c-0.94464,-1.10751 -1.873,-2.21503 -2.81764,-3.32254c-0.78177,-0.94464 -1.57983,-1.90557 -2.37789,-2.8665c-0.42346,-0.52118 -0.86321,-1.05865 -1.28667,-1.59612c-0.21173,-0.26059 -0.40717,-0.5049 -0.60262,-0.76549c-0.32574,-0.40717 -0.65148,-0.81435 -0.96093,-1.23781c-0.14658,-0.19544 -0.29316,-0.3746 -0.43975,-0.57004c-0.19544,-0.29317 -0.39089,-0.57004 -0.58633,-0.86321c-0.16287,-0.27688 -0.30945,-0.53747 -0.47232,-0.81435c0,-0.01629 0,-0.04886 -0.01629,-0.06515c-0.01629,-0.09772 -0.01629,-0.21173 -0.03257,-0.30945c-0.01629,-0.06515 -0.01629,-0.1303 -0.03257,-0.19544c-0.01629,-0.19544 -0.03257,-0.39089 -0.04886,-0.58633c0,-0.11401 -0.01629,-0.21173 -0.01629,-0.32574c-0.03257,-0.42346 -0.04886,-0.84692 -0.08143,-1.27038c-0.03257,-0.55376 -0.06515,-1.10751 -0.08143,-1.66127c-0.68405,-14.34881 -1.04236,-28.71391 -1.44954,-43.07901c-0.63519,-22.80174 -1.20523,-45.61977 -1.72641,-68.43781c-1.4984,-64.61037 -2.78507,-129.22074 -4.15317,-193.83111c5.9773,-19.43034 11.85689,-38.90955 18.02963,-58.27474c0.48861,-1.4984 0.96093,-3.01309 1.44954,-4.51149c0.45603,-1.35182 0.89578,-2.70364 1.33553,-4.05545c0.40717,-1.18895 0.81435,-2.39418 1.22152,-3.58313c0.35831,-1.04237 0.71662,-2.10102 1.07494,-3.14338c0.22802,-0.60262 0.43975,-1.20524 0.65148,-1.80785c0.11401,-0.29317 0.21173,-0.58633 0.32574,-0.8795c0.17916,-0.5049 0.3746,-1.00979 0.57004,-1.51469c0.08143,-0.2443 0.17916,-0.47232 0.27688,-0.71663c0.16287,-0.40717 0.32574,-0.81435 0.48861,-1.22152c0.08143,-0.17916 0.16287,-0.3746 0.22802,-0.55376c0.14658,-0.30945 0.27688,-0.6189 0.42346,-0.92836c0.06515,-0.1303 0.1303,-0.27688 0.19544,-0.40717c0.11401,-0.21173 0.21173,-0.42346 0.32574,-0.6189c0.04886,-0.09772 0.11401,-0.17916 0.16287,-0.27688c0.08143,-0.11401 0.16287,-0.21173 0.2443,-0.32574c0.04886,-0.03257 0.08143,-0.08143 0.11401,-0.11401c0.06515,-0.01629 0.1303,-0.01629 0.17916,-0.03257c0.03257,0.01629 0.04886,0.01629 0.08143,0.03257z" style="stroke: rgb(255,255,255); stroke-width: 8; stroke-dasharray: none; stroke-linecap: butt; stroke-dashoffset: 0; stroke-linejoin: round; stroke-miterlimit: 4; fill: rgb(255,255,255); fill-opacity: 0; fill-rule: nonzero; opacity: 1;"></path>
</g>
		<g id="e759d73f-e60f-4a30-b237-f83602ffef0f-child-0">
<path stroke-linecap="round" d="M 274.00 698.84 C 268.23 695.52 247.30 683.77 227.50 672.73 C 207.70 661.69 189.86 651.64 187.85 650.38 L 184.20 648.10 L 191.57 633.80 C 195.63 625.93 198.96 618.90 198.97 618.16 C 198.99 617.43 191.12 605.19 181.50 590.97 C 171.88 576.75 164.00 564.69 164.00 564.17 C 164.00 563.03 159.69 563.64 229.21 554.93 L 285.92 547.83 L 326.71 552.93 C 392.20 561.13 407.45 563.07 408.28 563.30 C 408.71 563.42 400.94 575.52 391.03 590.18 C 381.11 604.85 373.02 617.44 373.04 618.17 C 373.06 618.90 376.41 626.02 380.48 633.98 C 384.54 641.94 387.79 648.52 387.69 648.59 C 387.58 648.67 375.58 655.37 361.00 663.50 C 346.42 671.63 323.77 684.29 310.67 691.64 C 297.56 698.99 286.31 704.97 285.67 704.94 C 285.02 704.91 279.77 702.16 274.00 698.84 Z M 8.00 488.11 L 8.00 400.00 L 58.76 400.00 L 109.52 400.00 L 122.26 413.42 L 135.00 426.85 L 135.00 445.57 L 135.00 464.29 L 130.38 469.24 L 125.75 474.18 L 130.43 478.93 L 135.11 483.68 L 134.93 500.94 L 134.74 518.19 L 121.47 533.26 L 108.19 548.32 L 89.92 552.65 C 66.46 558.21 21.62 571.05 9.25 575.74 C 8.26 576.12 8.00 558.18 8.00 488.11 Z M 70.00 524.18 L 82.50 521.49 L 82.78 508.69 L 83.06 495.90 L 79.78 496.49 C 77.98 496.82 71.65 497.90 65.73 498.89 C 59.81 499.89 54.78 500.89 54.56 501.11 C 54.21 501.46 53.66 522.27 53.91 525.75 C 54.03 527.45 55.55 527.30 70.00 524.18 Z M 68.50 461.95 C 85.89 460.28 84.11 461.88 83.78 448.22 L 83.50 436.50 L 75.00 436.72 C 70.32 436.84 63.69 437.22 60.25 437.55 L 54.00 438.16 L 54.00 450.58 C 54.00 461.74 54.18 463.00 55.75 463.00 C 56.71 463.00 62.45 462.53 68.50 461.95 Z M 553.50 570.38 C 549.65 569.02 540.20 565.99 532.50 563.65 L 518.50 559.40 L 518.23 535.98 C 518.08 523.10 517.63 512.24 517.23 511.84 C 516.47 511.09 489.58 506.00 486.35 506.00 C 484.60 506.00 484.52 507.15 484.79 528.00 C 485.01 544.76 484.78 550.00 483.86 550.00 C 483.19 550.00 475.64 548.45 467.07 546.56 C 458.51 544.67 448.53 542.61 444.91 541.98 L 438.31 540.85 L 437.66 519.17 C 437.30 507.25 437.00 480.50 437.00 459.72 L 437.00 421.94 L 449.25 410.00 L 461.50 398.06 L 502.47 398.28 L 543.44 398.50 L 553.72 412.88 L 564.00 427.26 L 564.00 500.13 C 564.00 568.89 563.90 573.00 562.25 572.93 C 561.29 572.88 557.35 571.74 553.50 570.38 Z M 517.20 454.54 C 517.04 442.45 516.81 432.49 516.70 432.39 C 516.59 432.29 509.19 431.82 500.25 431.35 L 484.00 430.50 L 484.00 451.64 L 484.00 472.77 L 494.25 474.02 C 499.89 474.70 506.52 475.61 509.00 476.03 C 518.23 477.61 517.54 479.42 517.20 454.54 Z M 403.50 535.84 C 393.17 534.68 386.19 533.46 385.71 532.72 C 385.27 532.05 380.05 522.28 374.10 511.00 C 357.27 479.10 347.03 460.41 346.99 461.50 C 346.97 462.05 346.97 477.61 347.00 496.07 L 347.05 529.64 L 332.77 529.23 C 324.92 529.00 316.25 528.52 313.50 528.15 L 308.50 527.47 L 308.50 463.49 L 308.50 399.50 L 327.25 399.23 L 346.00 398.96 L 346.14 402.73 C 346.22 404.80 346.56 417.91 346.89 431.85 L 347.50 457.20 L 365.46 428.85 C 375.34 413.26 383.89 400.17 384.46 399.77 C 385.68 398.90 422.39 398.73 423.25 399.58 C 423.82 400.15 408.01 425.05 391.77 449.13 L 383.25 461.76 L 389.23 472.13 C 394.16 480.70 409.26 507.71 423.11 532.75 L 426.02 538.00 L 423.26 537.87 C 421.74 537.80 412.85 536.89 403.50 535.84 Z M 170.25 525.42 L 158.00 515.77 L 158.00 479.64 C 158.00 459.76 158.30 433.70 158.66 421.73 L 159.32 399.96 L 182.41 400.23 L 205.50 400.50 L 205.15 452.39 L 204.79 504.28 L 216.65 503.62 C 223.17 503.25 230.86 502.69 233.75 502.36 L 239.00 501.77 L 239.00 472.05 C 239.00 455.70 239.30 432.79 239.66 421.14 L 240.32 399.96 L 263.41 400.23 L 286.50 400.50 L 286.75 453.00 L 287.00 505.50 L 275.75 517.26 L 264.50 529.02 L 257.50 529.01 C 248.93 529.01 227.41 530.54 208.00 532.55 C 200.02 533.38 191.02 534.28 188.00 534.56 L 182.50 535.07 L 170.25 525.42 Z M 162.66 371.27 C 159.76 370.97 149.09 364.80 119.16 346.13 C 97.35 332.52 77.87 320.40 75.87 319.19 C 71.65 316.63 6.84 244.96 5.79 241.69 C 5.41 240.49 4.19 197.20 3.09 145.50 L 1.10 51.50 L 8.63 27.00 C 14.96 6.45 18.00 -1.94 18.00 1.20 C 18.00 1.77 28.39 32.42 60.65 127.00 C 68.63 150.38 77.73 177.10 80.89 186.39 L 86.63 203.27 L 150.45 231.64 L 214.26 260.00 L 286.00 260.00 L 357.74 260.00 L 421.50 231.66 L 485.26 203.32 L 509.11 133.41 C 522.22 94.96 537.77 49.43 543.65 32.22 C 549.53 15.02 554.68 1.29 555.10 1.72 C 555.51 2.15 558.12 9.93 560.89 19.00 C 563.67 28.08 567.06 39.09 568.43 43.49 L 570.93 51.47 L 568.98 134.99 C 567.90 180.92 567.02 223.79 567.01 230.26 L 567.00 242.01 L 554.78 255.76 C 548.06 263.31 540.89 271.30 538.86 273.50 C 536.82 275.70 527.13 286.41 517.33 297.30 L 499.50 317.09 L 455.50 344.52 L 411.50 371.94 L 289.00 371.81 C 221.62 371.73 164.77 371.49 162.66 371.27 Z" transform="matrix(1.628693 0 0 1.628696 600.000107 600.000047) matrix(1 0 0 1 0 0)  translate(-286.015, -352.750175)" style="stroke: rgb(193,193,193); stroke-width: 0; stroke-dasharray: none; stroke-linecap: butt; stroke-dashoffset: 0; stroke-linejoin: miter; stroke-miterlimit: 4; fill: rgb(0,0,0); fill-rule: nonzero; opacity: 1;"></path>
</g>
</g>
</g>

  </svg>